<mxfile host="drawio-plugin" modified="2022-11-07T23:01:33.888Z" agent="5.0 (Windows NT 6.2; Win64; x64) AppleWebKit/537.36 (KHTML, like Gecko) Chrome/98.0.4758.102 Safari/537.36" version="15.5.4" etag="Zw0R69OK0UCwa7EzWtOv" type="embed"><diagram id="RCmQROUpzB5a1WLBMB2V" name="Page-1"><mxGraphModel dx="1033" dy="700" grid="1" gridSize="10" guides="1" tooltips="1" connect="1" arrows="1" fold="1" page="1" pageScale="1" pageWidth="850" pageHeight="1100" math="0" shadow="0"><root><mxCell id="0"/><mxCell id="1" parent="0"/><mxCell id="2" value="ScrabbleFrame" style="swimlane;fontStyle=1;align=center;verticalAlign=top;childLayout=stackLayout;horizontal=1;startSize=26;horizontalStack=0;resizeParent=1;resizeParentMax=0;resizeLast=0;collapsible=1;marginBottom=0;" vertex="1" parent="1"><mxGeometry x="310" y="140" width="320" height="514" as="geometry"/></mxCell><mxCell id="3" value="- centerContent: JPanel&#10;- rightContent: JPanel&#10;- leftContent: JPanel&#10;- northContent: JPanel&#10;- southContent: JPanel&#10;&#10;- centerContentContainer: JPanel&#10;- rightContentContainer&#10;: JPanel&#10;- leftContentContainer&#10;: JPanel&#10;- northContentContainer&#10;: JPanel&#10;- southContentContainer&#10;: JPanel" style="text;strokeColor=none;fillColor=none;align=left;verticalAlign=top;spacingLeft=4;spacingRight=4;overflow=hidden;rotatable=0;points=[[0,0.5],[1,0.5]];portConstraint=eastwest;" vertex="1" parent="2"><mxGeometry y="26" width="320" height="270" as="geometry"/></mxCell><mxCell id="4" value="" style="line;strokeWidth=1;fillColor=none;align=left;verticalAlign=middle;spacingTop=-1;spacingLeft=3;spacingRight=3;rotatable=0;labelPosition=right;points=[];portConstraint=eastwest;" vertex="1" parent="2"><mxGeometry y="296" width="320" height="8" as="geometry"/></mxCell><mxCell id="5" value="+ setCenterContent: JPanel&#10;+ setRightContent: JPanel&#10;+ setLeftContent: JPanel&#10;+ setNorthContent: JPanel&#10;+ setSouthContent: JPanel" style="text;strokeColor=none;fillColor=none;align=left;verticalAlign=top;spacingLeft=4;spacingRight=4;overflow=hidden;rotatable=0;points=[[0,0.5],[1,0.5]];portConstraint=eastwest;" vertex="1" parent="2"><mxGeometry y="304" width="320" height="210" as="geometry"/></mxCell><mxCell id="8" value="Turn Action Panel" style="swimlane;fontStyle=1;align=center;verticalAlign=top;childLayout=stackLayout;horizontal=1;startSize=26;horizontalStack=0;resizeParent=1;resizeParentMax=0;resizeLast=0;collapsible=1;marginBottom=0;" vertex="1" parent="1"><mxGeometry x="70" y="160" width="200" height="390" as="geometry"/></mxCell><mxCell id="9" value="- turnPanelt: JPanel&#10;- actionPanelt: JPanel&#10;- undoPanel: JPanel&#10;- currentPlayer: String&#10;- placeButton: JButton&#10;- discardButton: JButton&#10;- undoButton: JButton" style="text;strokeColor=none;fillColor=none;align=left;verticalAlign=top;spacingLeft=4;spacingRight=4;overflow=hidden;rotatable=0;points=[[0,0.5],[1,0.5]];portConstraint=eastwest;" vertex="1" parent="8"><mxGeometry y="26" width="200" height="224" as="geometry"/></mxCell><mxCell id="10" value="" style="line;strokeWidth=1;fillColor=none;align=left;verticalAlign=middle;spacingTop=-1;spacingLeft=3;spacingRight=3;rotatable=0;labelPosition=right;points=[];portConstraint=eastwest;" vertex="1" parent="8"><mxGeometry y="250" width="200" height="8" as="geometry"/></mxCell><mxCell id="11" value="+ setCurrentPlayer(String name)" style="text;strokeColor=none;fillColor=none;align=left;verticalAlign=top;spacingLeft=4;spacingRight=4;overflow=hidden;rotatable=0;points=[[0,0.5],[1,0.5]];portConstraint=eastwest;" vertex="1" parent="8"><mxGeometry y="258" width="200" height="132" as="geometry"/></mxCell></root></mxGraphModel></diagram></mxfile>